<?xml version="1.0" encoding="UTF-8"?>
<!DOCTYPE svg PUBLIC "-//W3C//DTD SVG 1.1//EN" "http://www.w3.org/Graphics/SVG/1.1/DTD/svg11.dtd">
<!-- Creator: CorelDRAW 2020 (64 Bit) -->
<svg xmlns="http://www.w3.org/2000/svg" xml:space="preserve" width="210mm" height="297mm" version="1.1" style="shape-rendering:geometricPrecision; text-rendering:geometricPrecision; image-rendering:optimizeQuality; fill-rule:evenodd; clip-rule:evenodd"
viewBox="0 0 21000 29700"
 xmlns:xlink="http://www.w3.org/1999/xlink"
 xmlns:xodm="http://www.corel.com/coreldraw/odm/2003">
 <defs>
  <style type="text/css">
   <![CDATA[
    .fil0 {fill:#222222}
   ]]>
  </style>
   <clipPath id="id0">
    <rect x="9653.33" y="14003.33" width="1693.34" height="1693.34"/>
   </clipPath>
 </defs>
 <g id="Camada_x0020_1">
  <metadata id="CorelCorpID_0Corel-Layer"/>
  <g style="clip-path:url(#id0)">
   <image id="camera_14611310.png" x="9653.33" y="14003.33" width="1693.34" height="1693.34" xlink:href="insta_Images\insta_ImgID1.png"/>
  </g>
  <g id="_1709943945584">
   <path class="fil0" d="M9957.6 15098.05l0 -496.1c0,-46.53 7.91,-89.82 22.14,-123.38 43.17,-101.77 140.23,-170.97 265.6,-170.97l509.32 0c172.01,0 287.74,125.52 287.74,294.35l0 496.1c0,83.88 -25.22,155.6 -81.79,212.56 -55.54,55.9 -128.32,81.79 -212.56,81.79l-496.1 0c-61.53,0 -125.46,-14.79 -170.61,-47.67 -38.49,-28.02 -46.66,-36.41 -74.66,-74.17 -33.67,-45.4 -49.08,-109.25 -49.08,-172.51zm-79.37 -529.17l0 565.55c0,44.9 18.61,103.3 34.13,134.54 19.92,40.12 40.25,68.21 70.36,98.31 56.9,56.9 147,104.49 232.85,104.49l568.86 0c125.73,0 247.33,-90.28 303.21,-202.8 15.52,-31.24 34.13,-89.64 34.13,-134.54l0 -568.86c0,-170.27 -167.07,-337.34 -337.34,-337.34l-565.55 0c-129.22,0 -249.95,88.9 -306.52,202.8 -16.73,33.68 -34.13,88.99 -34.13,137.85z"/>
   <path class="fil0" d="M10285.03 14859.92c0,-67.99 18.23,-115.12 61.97,-162.92l27.26 -22.35c8.19,-5.89 24.21,-15.45 33.51,-19.4 217.58,-92.49 399.47,153.06 257.17,333.24 -65.35,82.74 -194.11,102.5 -288.75,38.23 -8.48,-5.76 -7.49,-6.09 -14.37,-12.09 -15.25,-13.3 -23.32,-19.53 -37.19,-38.87 -5.26,-7.33 -15.9,-24.73 -19.8,-33.11 -8.2,-17.58 -19.8,-57.08 -19.8,-82.73zm-82.69 -9.92c0,218.17 237.45,361.48 418.97,270.14 103.51,-52.09 176.35,-146.8 176.35,-270.14 0,-135.86 -98.71,-258.6 -230.15,-289.1 -66.67,-15.47 -130.92,-8.75 -188.8,18.98 -10.15,4.86 -15.94,7 -24.47,11.91 -8.31,4.79 -14.22,8.57 -22.3,14.08 -17.78,12.13 -26.19,20 -41.13,34.94 -54.28,54.29 -88.47,130.54 -88.47,209.19z"/>
   <path class="fil0" d="M10787.74 14492.81c0,92.41 135.6,88.28 135.6,3.31 0,-92.41 -135.6,-88.28 -135.6,-3.31z"/>
  </g>
 </g>
</svg>
